<svg xmlns="http://www.w3.org/2000/svg" width="32" height="32" viewBox="0 0 24 24">
  <defs>
    <linearGradient id="cvGradient" x1="0%" y1="0%" x2="100%" y2="100%">
      <stop offset="0%" style="stop-color:#3b82f6;stop-opacity:1" />
      <stop offset="100%" style="stop-color:#8b5cf6;stop-opacity:1" />
    </linearGradient>
    <filter id="shadow" x="-20%" y="-20%" width="140%" height="140%">
      <feDropShadow dx="0.5" dy="0.5" stdDeviation="0.5" flood-opacity="0.3"/>
    </filter>
  </defs>
  
  <!-- Main CV shape -->
  <path d="M14 2H6a2 2 0 0 0-2 2v16a2 2 0 0 0 2 2h12a2 2 0 0 0 2-2V8z" 
        fill="url(#cvGradient)" 
        filter="url(#shadow)"/>
  
  <!-- Folded corner -->
  <path d="M14 2v6h6" 
        stroke="white" 
        stroke-width="1.5" 
        fill="none"/>
  
  <!-- Stylized 'CV' text -->
  <path d="M9 12.5c0-1 .7-1.5 1.5-1.5s1.5.5 1.5 1.5-.7 1.5-1.5 1.5S9 13.5 9 12.5z" 
        fill="white"/>
  <path d="M13 11l2 3m0-3l-2 3" 
        stroke="white" 
        stroke-width="1.5" 
        stroke-linecap="round"/>
  
  <!-- Decorative elements -->
  <line x1="7" y1="16" x2="17" y2="16" 
        stroke="white" 
        stroke-width="1.5" 
        stroke-linecap="round" 
        opacity="0.7"/>
  <line x1="7" y1="18" x2="14" y2="18" 
        stroke="white" 
        stroke-width="1.5" 
        stroke-linecap="round" 
        opacity="0.5"/>
</svg> 